<svg id="Capa_1" data-name="Capa 1" xmlns="http://www.w3.org/2000/svg" viewBox="0 0 387.38 613.11"><defs><style>.cls-1{fill:#fff;stroke:#1d1d1b;stroke-linecap:round;stroke-linejoin:round;stroke-width:30px;}</style></defs><title>download</title><path class="cls-1" d="M201.49,82.19h209a8.32,8.32,0,0,1,8.32,8.32V257a8.32,8.32,0,0,0,8.32,8.32h49.24a8.32,8.32,0,0,1,7.6,11.7L313.58,660.36a8.32,8.32,0,0,1-15.21,0L128,277a8.32,8.32,0,0,1,7.6-11.7h49.24a8.32,8.32,0,0,0,8.32-8.32V90.51A8.32,8.32,0,0,1,201.49,82.19Z" transform="translate(-112.28 -67.19)"/></svg>