<svg id="Capa_1" data-name="Capa 1" xmlns="http://www.w3.org/2000/svg" viewBox="0 0 198 198"><defs><style>.cls-1{fill:none;stroke:#1d1d1b;stroke-linecap:round;stroke-linejoin:round;stroke-width:5px;}</style></defs><title>mjuez</title><path class="cls-1" d="M255.55,517.82a166.76,166.76,0,0,0,17.28-43.32c10.12-43.16,15.5-121.17,15.5-121.17S257.83,502.5,278.83,529c11.64,14.69,30.08-13.83,36.5-40.81,6.67-28,3.67-58.33,3.67-58.33s-15.32,83.95,3.68,93.52c12.16,6.12,23.86-24.49,26.41-38.88a100.9,100.9,0,0,0,1.25-25.64s-17.49,45.59,12.67,56a39.85,39.85,0,0,0,18.25,1.41" transform="translate(-218.5 -344.83)"/><circle class="cls-1" cx="99" cy="99" r="96.5"/></svg>